<svg width="108" height="100" viewBox="0 0 108 100" fill="none" xmlns="http://www.w3.org/2000/svg">
<circle cx="5.5102" cy="5.5102" r="5.5102" fill="#6DE5B0"/>
<circle cx="5.5102" cy="27.551" r="5.5102" fill="#6DE5B0"/>
<circle cx="5.5102" cy="49.5918" r="5.5102" fill="#6DE5B0"/>
<circle cx="5.5102" cy="71.6327" r="5.5102" fill="#6DE5B0"/>
<circle cx="5.5102" cy="93.6735" r="5.5102" fill="#6DE5B0"/>
<circle cx="29.7551" cy="5.5102" r="5.5102" fill="#6DE5B0"/>
<circle cx="29.7551" cy="27.551" r="5.5102" fill="#6DE5B0"/>
<circle cx="29.7551" cy="49.5918" r="5.5102" fill="#6DE5B0"/>
<circle cx="29.7551" cy="71.6327" r="5.5102" fill="#6DE5B0"/>
<circle cx="29.7551" cy="93.6735" r="5.5102" fill="#6DE5B0"/>
<circle cx="54" cy="5.5102" r="5.5102" fill="#6DE5B0"/>
<circle cx="54" cy="27.551" r="5.5102" fill="#6DE5B0"/>
<circle cx="54" cy="49.5918" r="5.5102" fill="#6DE5B0"/>
<circle cx="54" cy="71.6327" r="5.5102" fill="#6DE5B0"/>
<circle cx="54" cy="93.6735" r="5.5102" fill="#6DE5B0"/>
<circle cx="78.2449" cy="5.5102" r="5.5102" fill="#6DE5B0"/>
<circle cx="78.2449" cy="27.551" r="5.5102" fill="#6DE5B0"/>
<circle cx="78.2449" cy="49.5918" r="5.5102" fill="#6DE5B0"/>
<circle cx="78.2449" cy="71.6327" r="5.5102" fill="#6DE5B0"/>
<circle cx="78.2449" cy="93.6735" r="5.5102" fill="#6DE5B0"/>
<circle cx="102.49" cy="5.5102" r="5.5102" fill="#6DE5B0"/>
<circle cx="102.49" cy="27.551" r="5.5102" fill="#6DE5B0"/>
<circle cx="102.49" cy="49.5918" r="5.5102" fill="#6DE5B0"/>
<circle cx="102.49" cy="71.6327" r="5.5102" fill="#6DE5B0"/>
<circle cx="102.49" cy="93.6735" r="5.5102" fill="#6DE5B0"/>
</svg>
